<svg width="375" height="320" viewBox="0 0 375 320" fill="none" xmlns="http://www.w3.org/2000/svg">
<ellipse cx="237.489" cy="286.243" rx="196.489" ry="33.6487" fill="#E4EBF0"/>
<ellipse cx="237.489" cy="276.243" rx="196.489" ry="33.6487" fill="white"/>
<path opacity="0.3" d="M197.494 243.521C196.614 245.409 199.622 253.646 205.173 255.915C223.789 263.525 249.597 253.547 247.343 257.153C245.089 260.76 223.937 268.938 248.906 267.135C268.881 265.692 285.272 270.489 296.89 272.426" stroke="url(#paint0_linear_3_696)" stroke-width="2" stroke-linecap="round"/>
<path d="M196.177 228.928C193.345 236.384 195.509 250.024 212.522 251.065C221.019 251.585 247.028 251.585 244.774 254.707C242.52 257.828 222.059 265.631 247.028 264.07C267.003 262.822 283.615 270.543 295.232 272.22" stroke="url(#paint1_linear_3_696)" stroke-width="2" stroke-linecap="round"/>
<path d="M216.432 262.804C198.708 261.087 173.475 258.385 171.063 257.869C158.947 256.079 160.465 241.151 163.706 231.101C155.094 231.61 134.373 232.868 120.39 233.826C112.518 256.601 120.384 261.535 123.497 262.029L168.769 267.516C172.756 267.999 176.781 268.081 180.784 267.76L216.415 264.903C217.64 264.804 217.655 262.923 216.432 262.804Z" fill="url(#paint2_linear_3_696)"/>
<path d="M181.369 268.107C166.879 266.903 126.876 262.71 123.808 262.053L56.2422 269.212L107.509 275.426L181.369 268.107Z" fill="url(#paint3_linear_3_696)"/>
<path d="M306.122 295.618C291.632 294.413 261.498 283.736 258.43 283.079L178.083 294.102L237.383 308.156L306.122 295.618Z" fill="url(#paint4_linear_3_696)"/>
<path d="M263.733 29.279L79.829 9.56181C76.1529 9.16768 72.9985 12.1598 73.1981 15.8516L84.756 229.61C84.9355 232.929 87.7784 235.47 91.0962 235.276L277.256 224.431C280.604 224.236 283.143 221.334 282.89 217.99L269.076 34.7937C268.859 31.9072 266.611 29.5876 263.733 29.279Z" fill="url(#paint5_linear_3_696)"/>
<g style="mix-blend-mode:multiply" opacity="0.3">
<path d="M209.093 118.336C211.694 136.91 201.285 153.555 186.055 155.687C170.826 157.82 156.246 144.675 153.645 126.101C151.044 107.526 161.453 90.8821 176.682 88.7495C191.912 86.6169 206.492 99.762 209.093 118.336Z" stroke="#CEDDE6"/>
</g>
<g style="mix-blend-mode:multiply" opacity="0.2">
<path d="M222.617 116.442C226.477 144.006 211.034 168.786 188.335 171.965C165.636 175.143 143.98 155.558 140.12 127.994C136.261 100.43 151.704 75.6502 174.403 72.4717C197.102 69.2932 218.758 88.8782 222.617 116.442Z" stroke="#CEDDE6"/>
</g>
<g style="mix-blend-mode:multiply" opacity="0.15">
<path d="M237.691 114.332C242.954 151.916 221.899 185.763 190.875 190.108C159.851 194.452 130.309 167.689 125.046 130.105C119.784 92.5213 140.838 58.6736 171.863 54.3294C202.887 49.9852 232.429 76.7479 237.691 114.332Z" stroke="#CEDDE6"/>
</g>
<g style="mix-blend-mode:multiply" opacity="0.15">
<path d="M251.723 112.367C258.292 159.278 232.013 201.566 193.24 206.996C154.466 212.425 117.584 178.981 111.015 132.07C104.446 85.159 130.724 42.8707 169.498 37.4413C208.271 32.012 245.154 65.456 251.723 112.367Z" stroke="#CEDDE6"/>
</g>
<path d="M190.966 144.763C187.101 143.469 183.548 142.089 180.375 139.885C178.935 138.9 177.642 137.716 176.532 136.37C173.043 132.043 173.381 127.401 177.568 123.717C180.846 120.781 184.85 119.166 189.068 118.153C197.527 116.102 206.354 116.113 214.808 118.186C215.443 118.403 216.127 118.437 216.781 118.286C217.435 118.134 218.034 117.802 218.51 117.328C222.702 113.686 227.943 112.796 233.266 112.335C238.844 111.877 244.458 112.568 249.759 114.363C249.983 114.495 250.236 114.57 250.495 114.58C250.755 114.589 251.013 114.535 251.246 114.42C256.461 111.09 262.335 109.916 268.342 109.65C278.037 109.244 287.358 110.6 295.681 116.111C297.408 117.207 298.848 118.7 299.883 120.465C302.503 125.059 300.467 130.23 295.052 132.749C289.153 135.487 283.203 138.118 277.272 140.799C260.402 148.422 243.499 156.024 226.667 163.767C221.381 166.193 215.884 166.85 210.199 166.724C203.217 166.541 196.469 165.172 190.369 161.479C188.975 160.636 187.716 159.587 186.637 158.366C183.489 154.793 183.819 150.354 187.485 147.328C188.504 146.451 189.629 145.732 190.966 144.763Z" fill="#CBD7DE"/>
<rect x="174.791" y="113.448" width="8.61226" height="17.2245" transform="rotate(2.18801 174.791 113.448)" fill="#CBD7DE"/>
<rect x="293.048" y="107.816" width="8.61226" height="17.2245" transform="rotate(2.18801 293.048 107.816)" fill="#CBD7DE"/>
<rect x="185.249" y="134.888" width="8.61226" height="17.2245" transform="rotate(2.18801 185.249 134.888)" fill="#CBD7DE"/>
<path d="M191.593 128.353C187.728 127.059 184.175 125.68 181.002 123.476C179.562 122.49 178.269 121.307 177.159 119.96C173.669 115.633 174.008 110.991 178.195 107.307C181.473 104.371 185.477 102.756 189.695 101.743C198.154 99.6922 206.981 99.7035 215.435 101.776C216.07 101.993 216.754 102.028 217.408 101.876C218.062 101.724 218.661 101.393 219.137 100.918C223.329 97.2762 228.57 96.3862 233.893 95.9256C239.471 95.4677 245.085 96.1579 250.386 97.9535C250.61 98.0857 250.863 98.16 251.122 98.1699C251.382 98.1799 251.64 98.125 251.873 98.0103C257.088 94.6801 262.962 93.5067 268.969 93.24C278.664 92.8346 287.985 94.1902 296.308 99.7011C298.034 100.798 299.475 102.29 300.509 104.055C303.13 108.649 301.094 113.82 295.679 116.339C289.78 119.077 283.83 121.708 277.899 124.389C261.029 132.013 244.126 139.614 227.294 147.358C222.008 149.784 216.511 150.44 210.826 150.314C203.844 150.131 197.096 148.762 190.996 145.069C189.602 144.227 188.343 143.177 187.264 141.956C184.116 138.383 184.446 133.944 188.112 130.918C189.131 130.041 190.256 129.323 191.593 128.353Z" fill="url(#paint6_linear_3_696)"/>
<path d="M249.269 126.956C249.09 127.043 248.875 127.111 248.638 127.159C248.043 127.276 233.986 129.98 225.299 125.754L218.18 122.292C217.611 122.015 217.473 121.591 217.836 121.239L224.107 115.138C224.293 114.955 224.597 114.808 224.974 114.719L237.569 111.694C238.301 111.519 239.171 111.587 239.74 111.864L246.859 115.326C255.546 119.552 249.936 126.362 249.689 126.651C249.59 126.766 249.448 126.87 249.269 126.956Z" fill="#CDD8DF"/>
<rect x="217.826" y="116.647" width="3.63307" height="4.88879" transform="rotate(2.18801 217.826 116.647)" fill="#CDD8DF"/>
<path d="M249.452 122.174C249.273 122.26 249.058 122.329 248.821 122.377C248.226 122.494 234.169 125.198 225.481 120.972L218.363 117.51C217.794 117.233 217.655 116.809 218.019 116.456L224.29 110.355C224.476 110.173 224.78 110.026 225.156 109.936L237.752 106.912C238.484 106.736 239.354 106.805 239.923 107.081L247.041 110.544C255.729 114.77 250.119 121.58 249.872 121.868C249.773 121.983 249.63 122.087 249.452 122.174Z" fill="white"/>
<g filter="url(#filter0_d_3_696)">
<rect width="52.0848" height="51.7903" rx="25.8951" transform="matrix(0.994522 0.104528 0.0579125 0.998322 56.502 48.8867)" fill="white"/>
</g>
<path d="M95.9748 88.5889L72.9761 86.1716C72.2178 86.0919 71.5673 85.4102 71.5231 84.649L70.5321 67.5658C70.4879 66.8046 71.0669 66.2521 71.8252 66.3318L78.3177 67.0142C78.8137 67.0663 79.2868 67.383 79.5552 67.8426L80.3908 69.2735C80.6591 69.7331 81.1322 70.0498 81.6283 70.1019L94.9839 71.5057C95.7423 71.5854 96.3928 72.2671 96.437 73.0283L97.268 87.3549C97.3121 88.1161 96.7331 88.6686 95.9748 88.5889Z" fill="#E4EEF4"/>
<path d="M72.9783 86.172L95.977 88.5893C96.7353 88.669 97.3143 88.1165 97.2701 87.3553L96.439 73.0288C96.3949 72.2676 95.7443 71.5859 94.986 71.5062L85.0609 70.463C84.5649 70.4109 84.123 70.6314 83.9049 71.0398L83.2261 72.3116C83.0082 72.7201 82.5662 72.9406 82.0701 72.8884L72.1472 71.8455C71.3889 71.7658 70.81 72.3183 70.8541 73.0795L71.5253 84.6494C71.5695 85.4106 72.22 86.0923 72.9783 86.172Z" fill="#CCDBE6"/>
<g filter="url(#filter1_d_3_696)">
<rect width="39.3546" height="39.132" rx="19.566" transform="matrix(0.994522 0.104528 0.0579125 0.998322 157.381 2.69824)" fill="white"/>
</g>
<path d="M187.206 32.6967L169.829 30.8702C169.256 30.81 168.764 30.2949 168.731 29.7197L167.982 16.812C167.949 16.2368 168.386 15.8193 168.959 15.8796L173.865 16.3951C174.24 16.4345 174.597 16.6738 174.8 17.0211L175.431 18.1023C175.634 18.4495 175.992 18.6888 176.366 18.7282L186.458 19.7889C187.031 19.8491 187.522 20.3642 187.556 20.9393L188.184 31.7643C188.217 32.3394 187.779 32.7569 187.206 32.6967Z" fill="#E4EEF4"/>
<path d="M169.83 30.8706L187.208 32.697C187.781 32.7573 188.218 32.3398 188.185 31.7646L187.557 20.9397C187.523 20.3646 187.032 19.8495 186.459 19.7892L178.96 19.001C178.585 18.9617 178.251 19.1283 178.086 19.4369L177.573 20.3978C177.409 20.7065 177.075 20.8731 176.7 20.8337L169.202 20.0456C168.629 19.9854 168.192 20.4029 168.225 20.978L168.732 29.7201C168.766 30.2953 169.257 30.8104 169.83 30.8706Z" fill="#CCDBE6"/>
<path d="M57.5598 175.963L88.2196 193.424C90.2592 194.585 92.8543 193.874 94.0159 191.834L99.6851 181.879C100.417 180.594 100.428 179.021 99.715 177.726L95.3934 169.876C95.0154 169.19 94.4547 168.621 93.7735 168.233L69.7527 154.553C67.713 153.392 65.1179 154.103 63.9564 156.143L55.9699 170.167C54.8083 172.207 55.5201 174.802 57.5598 175.963Z" fill="#CBD7DE"/>
<path d="M61.9524 168.25L92.6121 185.71C94.6518 186.872 97.2469 186.16 98.4085 184.12L104.078 174.165C104.809 172.88 104.821 171.308 104.108 170.012L99.786 162.162C99.4079 161.476 98.8473 160.907 98.1661 160.519L74.1453 146.839C72.1056 145.678 69.5105 146.39 68.349 148.429L60.3624 162.453C59.2009 164.493 59.9127 167.088 61.9524 168.25Z" fill="#D8E2E9"/>
<mask id="mask0_3_696" style="mask-type:alpha" maskUnits="userSpaceOnUse" x="59" y="146" width="46" height="41">
<path d="M61.9524 168.25L92.6121 185.71C94.6518 186.872 97.2469 186.16 98.4085 184.12L104.078 174.165C104.809 172.88 104.821 171.308 104.108 170.012L99.786 162.162C99.4079 161.476 98.8473 160.907 98.1661 160.519L74.1453 146.839C72.1056 145.678 69.5105 146.39 68.349 148.429L60.3624 162.453C59.2009 164.493 59.9127 167.088 61.9524 168.25Z" fill="#00609B"/>
</mask>
<g mask="url(#mask0_3_696)">
<rect x="72.1289" y="154.137" width="14.2549" height="1.57268" transform="rotate(29.6611 72.1289 154.137)" fill="white"/>
<rect x="70.1973" y="157.53" width="30.5463" height="1.57268" transform="rotate(29.6611 70.1973 157.53)" fill="white"/>
<rect x="68.2383" y="160.97" width="30.5463" height="1.57268" transform="rotate(29.6611 68.2383 160.97)" fill="white"/>
<path d="M94.766 163.768L96.1125 161.404C96.8869 160.044 98.617 159.569 99.9767 160.344L110.094 166.106C111.454 166.88 111.928 168.61 111.154 169.97L109.807 172.334C109.033 173.694 107.303 174.168 105.943 173.394L95.826 167.632C94.4662 166.858 93.9916 165.128 94.766 163.768Z" fill="#D7E0E4"/>
</g>
<path d="M238.577 279.069L337.261 265.599C338.086 265.486 338.925 265.546 339.726 265.776L386.1 279.069C386.1 280.485 385.086 281.696 383.693 281.945L291.241 298.449C274.508 295.278 240.548 288.669 238.577 287.604C236.607 286.538 237.756 281.47 238.577 279.069Z" fill="url(#paint7_linear_3_696)"/>
<path d="M292.415 295.363L384.686 279.315C385.425 279.187 386.1 279.755 386.1 280.505C386.1 281.089 385.681 281.59 385.105 281.693L292.906 298.152C292.038 298.307 291.241 297.639 291.241 296.758C291.241 296.069 291.736 295.481 292.415 295.363Z" fill="url(#paint8_linear_3_696)"/>
<path d="M244.156 280.817L290.201 295.241C290.82 295.435 291.241 296.008 291.241 296.657C291.241 297.588 290.398 298.289 289.484 298.115C272.245 294.837 240.481 288.633 238.577 287.604C237.781 287.173 237.494 286.088 237.489 284.79C237.478 281.537 241.052 279.845 244.156 280.817Z" fill="url(#paint9_linear_3_696)"/>
<defs>
<filter id="filter0_d_3_696" x="38.8881" y="47.6514" width="90.0265" height="90.1299" filterUnits="userSpaceOnUse" color-interpolation-filters="sRGB">
<feFlood flood-opacity="0" result="BackgroundImageFix"/>
<feColorMatrix in="SourceAlpha" type="matrix" values="0 0 0 0 0 0 0 0 0 0 0 0 0 0 0 0 0 0 127 0" result="hardAlpha"/>
<feOffset dy="15.2557"/>
<feGaussianBlur stdDeviation="9.53483"/>
<feColorMatrix type="matrix" values="0 0 0 0 0 0 0 0 0 0 0 0 0 0 0 0 0 0 0.06362 0"/>
<feBlend mode="normal" in2="BackgroundImageFix" result="effect1_dropShadow_3_696"/>
<feBlend mode="normal" in="SourceGraphic" in2="effect1_dropShadow_3_696" result="shape"/>
</filter>
<filter id="filter1_d_3_696" x="139.411" y="0.832645" width="77.3444" height="77.4227" filterUnits="userSpaceOnUse" color-interpolation-filters="sRGB">
<feFlood flood-opacity="0" result="BackgroundImageFix"/>
<feColorMatrix in="SourceAlpha" type="matrix" values="0 0 0 0 0 0 0 0 0 0 0 0 0 0 0 0 0 0 127 0" result="hardAlpha"/>
<feOffset dy="15.2557"/>
<feGaussianBlur stdDeviation="9.53483"/>
<feColorMatrix type="matrix" values="0 0 0 0 0 0 0 0 0 0 0 0 0 0 0 0 0 0 0.06362 0"/>
<feBlend mode="normal" in2="BackgroundImageFix" result="effect1_dropShadow_3_696"/>
<feBlend mode="normal" in="SourceGraphic" in2="effect1_dropShadow_3_696" result="shape"/>
</filter>
<linearGradient id="paint0_linear_3_696" x1="249.762" y1="203.218" x2="273.759" y2="257.382" gradientUnits="userSpaceOnUse">
<stop stop-color="#ACC4CE"/>
<stop offset="1" stop-color="#E5EDF0"/>
</linearGradient>
<linearGradient id="paint1_linear_3_696" x1="249.762" y1="206.577" x2="268.506" y2="255.465" gradientUnits="userSpaceOnUse">
<stop stop-color="#ACC4CE"/>
<stop offset="1" stop-color="#E5EDF0"/>
</linearGradient>
<linearGradient id="paint2_linear_3_696" x1="143.717" y1="231.101" x2="146.658" y2="245.426" gradientUnits="userSpaceOnUse">
<stop stop-color="#CCD7DE"/>
<stop offset="1" stop-color="#E0E9EF"/>
</linearGradient>
<linearGradient id="paint3_linear_3_696" x1="145.919" y1="219.589" x2="116.401" y2="276.974" gradientUnits="userSpaceOnUse">
<stop stop-color="#CCD7DE"/>
<stop offset="1" stop-color="#E0E9EF" stop-opacity="0"/>
</linearGradient>
<linearGradient id="paint4_linear_3_696" x1="267.76" y1="244.479" x2="238.242" y2="301.864" gradientUnits="userSpaceOnUse">
<stop stop-color="#CCD7DE"/>
<stop offset="1" stop-color="#E0E9EF" stop-opacity="0"/>
</linearGradient>
<linearGradient id="paint5_linear_3_696" x1="101.417" y1="-16.6766" x2="262.842" y2="-7.23121" gradientUnits="userSpaceOnUse">
<stop stop-color="#ECF2F5"/>
<stop offset="1" stop-color="#E0E9EF"/>
</linearGradient>
<linearGradient id="paint6_linear_3_696" x1="176.828" y1="60.1107" x2="295.934" y2="94.5533" gradientUnits="userSpaceOnUse">
<stop stop-color="white"/>
<stop offset="1" stop-color="#E1EBF2"/>
</linearGradient>
<linearGradient id="paint7_linear_3_696" x1="257.677" y1="261.717" x2="363.497" y2="291.739" gradientUnits="userSpaceOnUse">
<stop stop-color="#ECF2F5"/>
<stop offset="1" stop-color="#E0E9EF"/>
</linearGradient>
<linearGradient id="paint8_linear_3_696" x1="257.677" y1="261.717" x2="310.55" y2="298.455" gradientUnits="userSpaceOnUse">
<stop stop-color="#ECF2F5"/>
<stop offset="1" stop-color="#E0E9EF"/>
</linearGradient>
<linearGradient id="paint9_linear_3_696" x1="208.591" y1="238.056" x2="293.628" y2="275.697" gradientUnits="userSpaceOnUse">
<stop stop-color="#ECF2F5"/>
<stop offset="1" stop-color="#E0E9EF"/>
</linearGradient>
</defs>
</svg>
